<svg width="70" height="70" viewBox="0 0 140 144" fill="none" xmlns="http://www.w3.org/2000/svg">
<path d="M8.5099 137.5L70 23.1668L131.49 137.5H8.5099Z" stroke="white" stroke-width="3"/>
<path d="M138.5 69.5C138.5 107.045 107.842 137.5 70 137.5C32.1583 137.5 1.5 107.045 1.5 69.5C1.5 31.9548 32.1583 1.5 70 1.5C107.842 1.5 138.5 31.9548 138.5 69.5Z" stroke="white" stroke-width="3"/>
<path d="M13 139C13 141.761 10.7614 144 8 144C5.23858 144 3 141.761 3 139C3 136.239 5.23858 134 8 134C10.7614 134 13 136.239 13 139Z" fill="white"/>
<circle cx="132" cy="139" r="5" fill="white"/>
<circle cx="70" cy="139" r="5" fill="white"/>
</svg>
